<svg width="262" height="234" viewBox="0 0 262 234" fill="none" xmlns="http://www.w3.org/2000/svg">
<path d="M159.108 166.204V170.56H153.168V176.5H148.812V170.56H142.908V166.204H148.812V160.3H153.168V166.204H159.108ZM167.989 155.8H172.309V181H167.341V161.056L162.589 162.388L161.365 158.14L167.989 155.8ZM190.659 167.896C192.987 169.288 194.151 171.316 194.151 173.98C194.151 176.308 193.335 178.144 191.703 179.488C190.095 180.832 187.899 181.504 185.115 181.504C182.307 181.504 180.099 180.832 178.491 179.488C176.883 178.144 176.079 176.308 176.079 173.98C176.079 171.316 177.231 169.288 179.535 167.896C177.783 166.624 176.907 164.884 176.907 162.676C176.907 160.348 177.687 158.536 179.247 157.24C180.831 155.944 182.787 155.296 185.115 155.296C187.443 155.296 189.387 155.944 190.947 157.24C192.507 158.536 193.287 160.348 193.287 162.676C193.287 164.908 192.411 166.648 190.659 167.896ZM187.455 160.768C186.855 160.24 186.075 159.976 185.115 159.976C184.155 159.976 183.375 160.24 182.775 160.768C182.175 161.296 181.875 162.016 181.875 162.928C181.875 163.84 182.175 164.572 182.775 165.124C183.375 165.652 184.155 165.916 185.115 165.916C186.075 165.916 186.855 165.652 187.455 165.124C188.055 164.572 188.355 163.84 188.355 162.928C188.355 162.016 188.055 161.296 187.455 160.768ZM182.127 175.924C182.895 176.524 183.891 176.824 185.115 176.824C186.339 176.824 187.323 176.524 188.067 175.924C188.835 175.3 189.219 174.436 189.219 173.332C189.219 172.252 188.835 171.412 188.067 170.812C187.323 170.188 186.339 169.876 185.115 169.876C183.891 169.876 182.895 170.188 182.127 170.812C181.383 171.412 181.011 172.252 181.011 173.332C181.011 174.436 181.383 175.3 182.127 175.924Z" fill="#BE247C"/>
<circle opacity="0.6" cx="168.5" cy="168.5" r="61" stroke="#BE247C"/>
<circle opacity="0.4" cx="168.5" cy="168.5" r="110" stroke="#BE247C"/>
<circle opacity="0.2" cx="168.5" cy="168.5" r="168" stroke="#BE247C"/>
</svg>
