<svg width="180" height="209" viewBox="0 0 180 209" fill="none" xmlns="http://www.w3.org/2000/svg">
<g filter="url(#filter0_d_286_6969)">
<path d="M20.8273 68.6226C22.7853 69.03 24.7434 69.4374 26.7015 69.8448C24.7435 69.437 23.7646 69.2328 23.7647 69.2324C25.2713 61.9623 28.5299 55.1287 32.8635 49.2616C42.0789 36.7837 55.3028 29.1652 68.3311 23.7996C80.218 18.8647 93.4915 17.3752 106.303 19.6908C140.508 24.7774 168.006 61.3671 160.677 97.7193C158.295 111.133 151.641 123.858 141.797 133.44C125.353 149.771 99.5566 153.099 80.0762 145.748C66.0353 140.765 54.8618 131.622 46.308 120.872C39.3233 112.073 33.8277 102.026 30.3372 90.5007C28.4036 84.0809 27.1216 77.1956 26.7015 69.8448C24.7434 69.4374 22.7853 69.03 20.8273 68.6226C17.3805 75.7928 15.3479 83.8666 15.0285 92.1737C14.3934 107.098 19.4886 122.587 29.0986 134.577C40.8282 149.452 59.1145 158.438 77.1116 159.997C102.961 162.481 126.721 151.151 143.195 134.87C153.305 125.017 160.564 112.242 163.789 98.3669C173.599 61.3355 148.429 17.5833 108.503 9.11761C93.7897 5.63345 77.8325 6.84387 63.7467 12.7098C47.9657 19.1949 36.5046 33.1968 30.3136 47.8046C27.2936 54.7977 25.2743 61.9803 23.7647 69.2324C23.7646 69.2328 22.7854 69.0296 20.8273 68.6226ZM26.7015 69.8448L20.8273 68.6226L26.7015 69.8448Z" fill="#BE247C"/>
</g>
<g filter="url(#filter1_d_286_6969)">
<path d="M134.096 68.3422C133.389 67.6351 132.682 66.9279 131.975 66.2208C132.682 66.9281 133.035 67.2818 133.035 67.282C130.278 70.0395 127.3 72.5765 124.244 75.0352C117.819 80.204 111.047 85.0267 105.25 90.8235C101.464 94.6103 97.7201 98.4403 94.0062 102.3C92.9106 103.348 92.914 105.27 94.0062 106.313C94.0062 106.313 94.0062 106.313 94.0062 106.313C92.9135 105.267 92.9136 103.352 94.0064 102.306C92.1397 104.246 90.2806 106.193 88.4273 108.146C87.2694 109.495 84.906 109.669 83.4942 108.342C73.6941 99.1524 63.7998 90.0568 54.0248 80.8419C52.0204 79.075 51.866 75.5623 53.8503 73.5695C54.3288 73.0691 54.8077 72.5691 55.2871 72.0696C57.1849 69.9717 60.8684 69.8788 62.9014 71.9651C64.7855 73.8104 66.6606 75.6646 68.5253 77.5293C72.837 81.841 76.8439 86.4575 80.725 91.1999C83.2351 94.3227 88.66 94.9848 92.1296 91.9412C101.25 84.7591 110.491 77.6971 118.643 69.5457C121.419 66.7694 124.073 63.8709 126.605 60.85C126.736 60.2954 127.628 59.5944 128.793 59.9991C128.817 60.0081 128.842 60.0178 128.868 60.0281C129.435 60.4399 130.005 60.848 130.58 61.2522C131.918 61.719 133.144 63.9442 131.975 66.2208C132.682 66.9279 133.389 67.6351 134.096 68.3422C137.557 66.209 138.783 60.2838 135.492 56.3406C135.088 55.7659 134.68 55.195 134.268 54.628C134.199 54.5442 134.129 54.4617 134.058 54.3804C130.759 50.4105 123.745 49.8383 119.56 53.8056C116.539 56.3373 113.641 58.9912 110.865 61.7675C102.713 69.9189 95.651 79.1598 88.469 88.2806C87.5286 89.8666 84.8027 90.5287 82.903 89.0219C78.1606 85.1408 73.5441 81.1339 69.2324 76.8222C67.3677 74.9575 65.5136 73.0823 63.6683 71.1983C61.2912 68.6548 56.8236 68.5621 54.3116 71.0943C53.8122 71.5737 53.3123 72.0527 52.8119 72.5312C50.1669 74.9483 50.0127 79.586 52.6378 82.2289C61.8527 92.0039 70.9483 101.898 80.1381 111.698C83.1361 115.002 88.9231 115.175 92.1752 111.895C94.1285 110.041 96.0761 108.183 98.0161 106.316C99.1105 105.269 99.1106 103.351 98.0162 102.303C98.0162 102.303 98.0162 102.303 98.0162 102.303C99.1068 103.345 99.1103 105.264 98.0163 106.31C101.876 102.596 105.706 98.853 109.493 95.0662C115.29 89.2694 120.113 82.4984 125.282 76.0735C127.741 73.0173 130.278 70.0395 133.035 67.282C133.035 67.2818 133.389 67.6352 134.096 68.3422ZM131.975 66.2208L134.096 68.3422L131.975 66.2208Z" fill="#BE247C"/>
</g>
<defs>
<filter id="filter0_d_286_6969" x="0.976562" y="7.17578" width="178.934" height="201.163" filterUnits="userSpaceOnUse" color-interpolation-filters="sRGB">
<feFlood flood-opacity="0" result="BackgroundImageFix"/>
<feColorMatrix in="SourceAlpha" type="matrix" values="0 0 0 0 0 0 0 0 0 0 0 0 0 0 0 0 0 0 127 0" result="hardAlpha"/>
<feOffset dy="34"/>
<feGaussianBlur stdDeviation="7"/>
<feComposite in2="hardAlpha" operator="out"/>
<feColorMatrix type="matrix" values="0 0 0 0 0 0 0 0 0 0 0 0 0 0 0 0 0 0 0.25 0"/>
<feBlend mode="normal" in2="BackgroundImageFix" result="effect1_dropShadow_286_6969"/>
<feBlend mode="normal" in="SourceGraphic" in2="effect1_dropShadow_286_6969" result="shape"/>
</filter>
<filter id="filter1_d_286_6969" x="36.7461" y="51.1006" width="114.672" height="111.167" filterUnits="userSpaceOnUse" color-interpolation-filters="sRGB">
<feFlood flood-opacity="0" result="BackgroundImageFix"/>
<feColorMatrix in="SourceAlpha" type="matrix" values="0 0 0 0 0 0 0 0 0 0 0 0 0 0 0 0 0 0 127 0" result="hardAlpha"/>
<feOffset dy="34"/>
<feGaussianBlur stdDeviation="7"/>
<feComposite in2="hardAlpha" operator="out"/>
<feColorMatrix type="matrix" values="0 0 0 0 0 0 0 0 0 0 0 0 0 0 0 0 0 0 0.25 0"/>
<feBlend mode="normal" in2="BackgroundImageFix" result="effect1_dropShadow_286_6969"/>
<feBlend mode="normal" in="SourceGraphic" in2="effect1_dropShadow_286_6969" result="shape"/>
</filter>
</defs>
</svg>
