<svg width="1583" height="353" viewBox="0 0 1583 353" fill="none" xmlns="http://www.w3.org/2000/svg">
<path fill-rule="evenodd" clip-rule="evenodd" d="M569.006 9.51945L568.992 18.3157L567.832 18.9751C565.755 20.154 565.432 22.7446 567.132 24.5733L567.921 25.4214L567.028 26.893C564.472 31.1074 561.177 34.58 552.989 41.6905C544.992 48.6354 542.358 51.8393 540.692 56.6487C539.915 58.8915 539.789 59.9793 539.808 64.2901C539.842 72.1442 541.553 77.1388 545.754 81.6464C547.986 84.041 548.018 84.1076 547.602 85.4599C547.039 87.2877 547.456 88.773 548.691 89.3383L549.695 89.7977L549.438 94.0626C549.296 96.4082 549.073 99.0882 548.943 100.018L548.706 101.709L546.923 101.477C538.021 100.321 535.35 100.044 529.114 99.6277C520.63 99.0624 505.507 99.3224 497.637 100.168C489.857 101.005 480.691 102.325 480.336 102.66C480.168 102.818 481.02 105.176 482.227 107.899L484.423 112.851L472.535 136.597C463.539 154.567 460.711 160.545 460.91 161.177C461.415 162.785 462.284 163.705 463.951 164.398C465.229 164.929 465.682 165.351 465.843 166.163C465.959 166.75 465.969 167.454 465.864 167.727C465.758 168 465.936 169.09 466.258 170.148C466.58 171.207 467.617 178.164 468.562 185.608C469.508 193.052 470.98 204.61 471.832 211.292C472.684 217.973 473.329 223.977 473.264 224.633L473.146 225.826L470.164 225.935C466.852 226.055 466.931 226.125 466.688 222.918C466.589 221.612 466.525 221.56 464.879 221.44C461.741 221.212 461.372 221.469 461.369 223.885L461.366 226.004L459.829 226.002C458.163 226 458.023 225.786 457.805 222.906L457.703 221.553L454.227 221.548L450.751 221.544L450.555 223.864L450.359 226.183L448.428 226.181C446.563 226.178 446.493 226.139 446.396 225.018C446.341 224.38 446.203 223.285 446.089 222.585L445.882 221.312L443.103 221.421L440.323 221.531L439.987 223.754L439.651 225.976L436.653 225.973L433.656 225.969L433.416 224.76C433.284 224.095 433.176 223.147 433.177 222.653C433.178 222.158 432.913 221.605 432.59 221.423C432.104 221.149 431.709 216.949 430.307 197.138C429.375 183.964 428.61 173.054 428.609 172.894C428.608 172.735 429.041 172.605 429.572 172.606C430.715 172.607 430.725 172.524 429.899 170.086C429.426 168.691 429.38 168.16 429.719 168.048C430.763 167.701 434.094 164.754 435.018 163.361C438.178 158.593 438.179 150.651 435.021 144.565C432.632 139.964 430.196 137.282 419.233 127.186C416.936 125.071 414.384 122.486 413.562 121.441C412.131 119.625 412.067 119.419 412.07 116.691C412.073 114.24 412.182 113.782 412.843 113.429C413.995 112.813 414.872 110.859 414.586 109.545C414.27 108.095 412.334 106.466 410.925 106.465C409.525 106.463 407.6 108.065 407.333 109.452C407.072 110.807 407.906 112.842 408.952 113.404C409.655 113.782 409.756 114.194 409.753 116.665C409.748 120.601 409.092 121.469 399.86 129.758C392.92 135.988 390.524 138.538 388.027 142.346C383.883 148.668 383.175 156.473 386.226 162.221C387.408 164.449 389.689 166.808 391.473 167.648C392.202 167.992 392.331 168.279 392.146 169.155C391.366 172.872 391.32 172.557 392.64 172.559C393.643 172.56 393.847 172.711 393.846 173.451C393.845 174.425 390.101 215.965 389.72 219.227L389.486 221.24L386.715 221.35C384.603 221.433 383.926 221.597 383.868 222.039C383.826 222.358 383.682 223.445 383.547 224.455L383.304 226.291L381.616 226.289C379.772 226.287 379.752 226.261 379.286 223.242C379.106 222.073 378.808 221.495 378.322 221.367C377.537 221.16 377.352 220.795 371.011 206.943C368.526 201.517 365.591 195.116 364.488 192.718L362.482 188.358L363.29 186.692C364.25 184.715 363.891 183.01 362.34 182.176C361.56 181.757 361.394 181.375 361.396 179.993L361.398 178.319L365.164 178.307L368.929 178.295L367.29 176.849C366.388 176.054 365.65 175.241 365.651 175.042C365.651 174.843 366.384 173.935 367.278 173.024L368.906 171.369L365.189 171.364C362.576 171.36 361.414 171.215 361.277 170.876C361.171 170.61 361.066 172.947 361.045 176.069C361.01 181.476 360.969 181.758 360.2 182.002C358.535 182.528 358.007 185.713 359.329 187.253C359.799 187.8 358.621 190.375 349.781 208.12C340.979 225.787 339.429 228.655 337.591 230.664C336.433 231.929 335.416 232.885 335.332 232.788C335.248 232.69 334.52 231.335 333.713 229.777C331.152 224.833 326.743 220.827 322.565 219.651L320.799 219.153L321.089 216.98C321.248 215.784 321.355 212.457 321.327 209.586C321.284 205.397 321.083 203.631 320.309 200.641C316.969 187.734 307.636 179.046 297.078 179.015C291.21 178.997 286.716 181.034 281.81 185.932C278.904 188.833 278.239 189.771 276.324 193.677C274.361 197.677 273.445 200.464 272.764 204.498L272.536 205.851L269.349 205.864C266.626 205.875 265.835 206.04 263.917 206.994C257.995 209.943 252.896 218.575 251.818 227.48C251.432 230.66 251.404 230.676 249.482 228.798C247.721 227.077 246.837 225.663 237.291 209.286C234.438 204.392 230.938 198.387 229.513 195.944L226.923 191.501L227.532 190.225C227.867 189.523 228.143 188.544 228.143 188.048C228.144 186.978 226.778 185.107 225.995 185.106C225.591 185.106 225.444 184.589 225.446 183.172L225.448 181.239L229.407 181.229L233.366 181.219L231.437 179.511L229.508 177.801L231.427 175.852L233.346 173.903L229.402 173.898C226.883 173.894 225.458 173.745 225.458 173.483C225.458 173.258 225.285 173.181 225.072 173.312C224.843 173.453 224.683 175.819 224.679 179.104L224.672 184.658L223.511 185.817C222.178 187.148 221.985 188.812 222.969 190.484C223.707 191.737 224.086 190.884 217.204 203.461C204.068 227.47 205.175 225.602 204.849 224.324C204.596 223.328 201.868 198.101 201.87 196.767C201.87 196.504 202.131 196.289 202.45 196.289C202.913 196.29 203.03 195.71 203.033 193.39C203.036 190.777 202.962 190.49 202.287 190.489C201.874 190.489 201.442 190.334 201.326 190.145C201.172 189.895 198.433 166.201 198.434 165.127C198.434 165.038 198.695 164.966 199.014 164.966C199.67 164.967 199.83 163.225 199.209 162.84C198.997 162.708 198.824 162.176 198.825 161.656C198.826 160.726 198.778 160.713 195.35 160.708L191.874 160.704L191.88 155.871C191.886 151.239 191.853 151.037 191.086 151.036L190.286 151.035L191.087 150.018C192.099 148.734 192.113 147.171 191.124 145.909C190.476 145.082 190.446 144.895 190.932 144.709C191.418 144.523 191.51 143.185 191.519 136.163L191.53 127.838L192.91 127.84L194.29 127.841L191.048 123.101C187.986 118.624 187.723 118.349 186.322 118.165C184.846 117.971 184.835 117.955 183.984 115.069C183.513 113.473 181.046 105.119 178.5 96.5026C174.522 83.0394 172.486 75.9491 171.669 72.7149C171.561 72.2894 172.086 72.8991 172.836 74.0697C174.126 76.0854 174.197 76.1365 174.18 75.038C174.171 74.4 174.034 72.9642 173.876 71.8477C173.544 69.4903 173.542 69.4911 176.733 70.5948C177.968 71.0216 179.198 71.3712 179.468 71.3715C179.737 71.3719 178.933 70.3911 177.681 69.192C176.428 67.993 175.47 66.9041 175.551 66.7728C175.633 66.641 176.846 66.1063 178.248 65.5837C179.649 65.0612 180.796 64.497 180.797 64.3304C180.797 64.1633 179.522 64.0252 177.965 64.0233C176.407 64.0213 175.019 63.9058 174.881 63.7668C174.742 63.6282 175.335 62.2371 176.199 60.6753C177.063 59.114 177.666 57.8364 177.541 57.8363C177.415 57.8361 176.199 58.71 174.838 59.7777C173.477 60.8458 172.289 61.5836 172.198 61.4176C172.107 61.2516 171.81 59.9846 171.537 58.602C171.265 57.2193 170.924 55.953 170.779 55.7885C170.634 55.6236 170.214 56.8843 169.846 58.5905C169.477 60.2963 169.129 61.6921 169.071 61.692C169.014 61.692 167.856 60.829 166.499 59.7744C165.141 58.7203 163.964 57.9242 163.882 58.0061C163.8 58.0879 164.357 59.336 165.121 60.7791C165.883 62.2223 166.508 63.5397 166.508 63.7059C166.507 63.8726 165.088 64.0069 163.353 64.0047C161.619 64.0025 160.321 64.1238 160.471 64.274C160.621 64.4242 161.812 65.0026 163.117 65.5595C164.423 66.116 165.55 66.7515 165.624 66.9716C165.697 67.1917 164.785 68.2001 163.598 69.2128C162.411 70.2251 161.517 71.1306 161.611 71.2247C161.705 71.3192 163.026 71.0193 164.547 70.5588C166.069 70.0983 167.406 69.815 167.52 69.9292C167.634 70.0434 167.53 71.3915 167.291 72.9255C167.051 74.4594 166.936 75.7951 167.035 75.8942C167.133 75.9933 167.745 75.2309 168.393 74.2001C169.041 73.169 169.575 72.4516 169.579 72.6055C169.587 72.9346 163.393 93.7479 159.252 107.304C157.661 112.513 156.273 117.069 156.166 117.43C156.026 117.901 155.463 118.118 154.164 118.2L152.357 118.315L149.137 122.951L145.916 127.587L147.674 127.707L149.433 127.827L149.422 136.099C149.413 143.141 149.5 144.422 150.005 144.705C150.52 144.995 150.494 145.133 149.811 145.751C148.734 146.724 148.758 148.914 149.858 150.089L150.697 150.985L149.857 150.984C149.039 150.983 149.017 151.112 149.011 155.816L149.005 160.649L144.779 160.644C142.455 160.641 140.473 160.769 140.375 160.928C140.277 161.088 140.072 162.044 139.92 163.054C139.679 164.647 139.732 164.891 140.315 164.891C140.893 164.892 140.956 165.153 140.758 166.729C140.63 167.739 140.071 173.262 139.514 179.003C138.958 184.744 138.429 189.659 138.34 189.925C138.25 190.19 137.651 190.407 137.006 190.406C135.919 190.405 135.836 190.504 135.834 191.8L135.832 193.194L133.421 190.953C132.095 189.72 129.613 187.807 127.906 186.7C126.199 185.594 123.954 183.839 122.918 182.801C120.211 180.088 117.46 175.656 116.416 172.325L115.513 169.444L116.427 164.737C117.498 159.218 117.466 157.408 116.357 160.866C116.2 161.357 116.043 161.403 115.7 161.058C114.853 160.208 112.092 160.515 110.798 161.602L109.609 162.601L108.422 161.599C106.788 160.219 104.35 160.204 102.878 161.566L101.825 162.541L100.668 161.564C99.0675 160.212 96.5973 160.209 94.9936 161.556L93.8341 162.531L92.7833 161.554C91.3151 160.188 88.877 160.196 87.2396 161.572L86.05 162.571L84.8629 161.569C83.4725 160.394 81.1488 160.215 79.6885 161.17C78.7748 161.768 78.7547 161.755 78.5015 160.396C78.1805 158.669 77.4491 158.55 77.7231 160.269C79.1477 169.209 79.1518 169.293 78.2873 171.861C76.1818 178.116 72.7079 182.661 67.3277 186.199C59.1034 191.607 54.081 198.05 52.7604 204.888C51.701 210.373 53.0239 216.926 56.1293 221.576C57.0363 222.935 57.7783 224.113 57.7782 224.195C57.7781 224.276 56.9075 225.537 55.8436 226.998C54.7796 228.459 53.909 229.76 53.9088 229.89C53.9087 230.019 55.4059 230.127 57.2365 230.13C60.4988 230.134 60.5594 230.151 60.3301 231.004C60.2017 231.482 60.0932 232.332 60.0898 232.891C60.0851 233.582 59.8343 233.974 59.3104 234.111C58.3218 234.368 58.1577 237.091 59.1309 237.092C59.5905 237.092 59.6786 237.382 59.514 238.349C59.3961 239.04 58.7709 244.129 58.1247 249.657C56.5406 263.21 56.6518 262.608 55.7303 262.607C54.9973 262.606 54.9638 262.819 55.0831 266.762L55.2084 270.919L53.2773 270.947C47.4948 271.031 42.3877 276.389 39.5589 285.341L38.5387 288.569L37.3393 287.556C34.7286 285.351 31.409 284.804 28.5386 286.105C26.5763 286.994 23.473 290.369 21.8877 293.338C19.8952 297.07 18.826 300.774 17.7156 307.796L17.5015 309.149L14.703 309.166C11.268 309.186 9.32384 310.089 6.50702 312.97C3.40596 316.143 1.02216 321.391 0.305261 326.624L0.0273118 328.653L75.278 328.819C153.332 328.991 263.603 328.978 263.804 328.797C263.867 328.74 262.79 321.596 261.41 312.921C260.03 304.246 258.97 297.079 259.055 296.995C259.139 296.91 260.436 297.461 261.935 298.22C263.435 298.979 266.188 300.065 268.055 300.634C271.137 301.574 272.226 301.69 279.944 301.908L288.44 302.148L288.334 303.887C288.275 304.844 287.877 310.76 287.449 317.032C287.02 323.305 286.67 328.568 286.669 328.728C286.668 328.887 289.275 329.021 292.461 329.025L298.254 329.032L298.241 327.969C298.233 327.384 298 321.425 297.722 314.726C297.443 308.027 297.294 302.415 297.389 302.256C297.484 302.096 298.638 301.968 299.953 301.969C301.268 301.971 303.734 301.809 305.434 301.609C307.134 301.408 310.116 301.062 312.062 300.841C316.375 300.349 321.359 298.949 325.063 297.189C326.586 296.465 327.901 295.942 327.985 296.027C328.103 296.145 323.584 321.61 322.301 328.064L322.077 329.191L380.721 329C412.975 328.896 439.454 328.722 439.562 328.614C439.67 328.506 439.454 324.116 439.082 318.858C438.71 313.6 438.257 307.036 438.074 304.271C437.892 301.506 437.637 298.157 437.508 296.827L437.273 294.411L455.375 294.434L473.478 294.457L470.414 311.69C468.728 321.169 467.458 329.033 467.591 329.167C467.84 329.417 672.437 329.703 672.661 329.454C672.73 329.378 672.385 324.53 671.896 318.681C668.691 280.435 667.94 270.981 668.09 270.832C668.183 270.738 669.184 271.356 670.314 272.204C675.213 275.879 680.077 278.099 685.872 279.304C688.776 279.908 691.139 280.031 700.087 280.047L710.818 280.066L710.588 284.995C710.304 291.065 709.188 324.993 709.184 327.635L709.182 329.555L713.879 329.561L718.576 329.567L718.338 317.291C718.207 310.539 717.992 299.428 717.86 292.601L717.619 280.189L722.797 279.98C726.796 279.818 728.76 279.54 731.415 278.758C738.27 276.74 743.442 273.732 748.166 269.015C749.497 267.686 750.586 266.766 750.586 266.971C750.585 267.456 743.901 306.243 740.893 323.216C737.315 343.401 736.142 350.549 736.367 350.775C736.481 350.889 782.238 351.017 838.051 351.059C893.864 351.101 950.61 351.145 964.152 351.156L988.776 351.176L988.575 347.986C988.002 338.897 986.103 299.592 986.207 298.975C986.311 298.36 986.642 298.498 988.541 299.943C991.302 302.045 994.527 303.284 997.466 303.372L999.728 303.439L999.49 309.238C999.359 312.428 999.137 318.387 998.996 322.481L998.741 329.923L1003.42 329.929C1007.63 329.935 1008.11 329.866 1008.11 329.259C1008.11 328.887 1007.77 323.188 1007.36 316.595C1006.94 310.002 1006.6 304.215 1006.6 303.734C1006.6 302.863 1006.6 302.863 1008.62 304.008C1012.68 306.302 1019.16 307.056 1023.61 305.753C1030.74 303.667 1037.33 297.041 1040.73 288.539C1042.93 283.048 1043.49 279.74 1043.47 272.369C1043.45 266.337 1043.34 265.183 1042.43 261.738C1039.56 250.839 1032.67 242.327 1024.58 239.664C1023.34 239.256 1022.28 238.908 1022.24 238.891C1022.19 238.873 1021.64 236.866 1021.02 234.43C1018.6 225.014 1015.02 218.05 1009.95 212.882C1006.46 209.321 1004.03 207.946 999.994 207.249C994.448 206.291 988.098 209.514 983.673 215.533C982.875 216.619 982.174 217.349 982.116 217.156C982.057 216.964 981.247 201.929 980.314 183.746C979.382 165.562 978.511 148.64 978.379 146.141L978.138 141.598L979.366 141.599C980.46 141.601 980.564 141.507 980.326 140.731C980.179 140.252 979.821 139.39 979.53 138.816C978.805 137.384 978.854 137.151 979.983 136.637C981.902 135.765 984.683 132.74 985.816 130.292C986.863 128.028 986.931 127.58 986.936 122.857C986.941 118.615 986.809 117.476 986.092 115.566C984.001 109.997 979.567 104.676 970.268 96.5771C965.918 92.7889 962.966 89.7055 962.059 88.0046C961.624 87.1882 961.703 86.9478 962.833 85.6633C963.937 84.408 964.066 84.037 963.882 82.6506C963.667 81.0268 962.235 79.3268 961.081 79.3254C960.607 79.3248 960.53 78.6515 960.625 75.3616L960.74 71.3986L967.236 71.2135L973.731 71.0284L969.845 69.3315C967.708 68.3985 965.959 67.5712 965.959 67.4935C965.959 67.4161 967.742 66.4398 969.921 65.324L973.882 63.2956L967.22 63.1812C963.216 63.1127 960.558 62.9164 960.558 62.6894C960.559 62.4818 960.385 62.3118 960.173 62.3115C959.927 62.3112 959.782 65.3888 959.776 70.7706L959.765 79.2297L958.587 79.7166C956.075 80.7546 955.587 83.7254 957.598 85.7436L958.914 87.0641L957.266 89.281C955.541 91.5999 953.821 93.2797 946.792 99.5039C936.391 108.716 933.265 114.091 933.254 122.788C933.25 126.314 933.403 127.45 934.152 129.433C935.212 132.241 936.998 134.469 939.415 136.003C940.371 136.609 941.15 137.278 941.148 137.491C941.145 137.704 940.892 138.704 940.585 139.714L940.026 141.549L941.583 141.551L943.14 141.553L942.912 143.97C942.786 145.299 942.238 153.258 941.692 161.657C941.147 170.057 940.66 177.32 940.61 177.798C940.526 178.614 940.321 178.535 937.241 176.508C931.837 172.951 928.195 168.867 925.7 163.568C923.681 159.279 923.519 157.772 924.493 152.299C924.96 149.673 925.433 147.219 925.544 146.847C925.655 146.475 925.555 146.171 925.323 146.171C925.091 146.17 924.8 146.675 924.676 147.293L924.45 148.416L923.077 147.84C921.266 147.079 919.447 147.448 918.03 148.863L916.904 149.988L916.045 149.07C914.033 146.92 910.814 146.939 909.103 149.111L908.309 150.12L907.531 149.128C906.615 147.959 904.409 147.133 903.085 147.464C902.569 147.594 901.545 148.226 900.81 148.871C899.54 149.985 899.454 150.006 899.078 149.3C898.86 148.891 898.051 148.257 897.28 147.889C895.459 147.021 893.628 147.357 892.154 148.83L891.027 149.955L890.134 149C889.642 148.474 888.613 147.856 887.847 147.625C886.512 147.223 885.68 147.419 883.11 148.739C882.951 148.821 882.821 148.361 882.822 147.718C882.823 147.075 882.65 146.441 882.437 146.309C881.904 145.978 881.936 146.743 882.691 152.413C883.234 156.493 883.266 157.675 882.878 159.179C882.173 161.907 879.579 166.896 877.562 169.406C875.791 171.61 875.067 172.104 875.068 171.107C875.068 170.821 874.726 167.472 874.308 163.663C873.374 155.157 873.35 153.837 874.124 153.838C874.59 153.839 874.704 153.241 874.707 150.772C874.711 147.713 874.708 147.704 873.649 147.58L872.588 147.457L871.229 134.889C870.085 124.303 869.958 122.3 870.421 122.188C870.828 122.09 870.911 121.687 870.739 120.642C870.612 119.865 870.506 118.924 870.504 118.552C870.501 117.955 870.067 117.875 866.832 117.871L863.163 117.866L863.169 112.84C863.176 107.936 863.155 107.813 862.336 107.812L861.496 107.811L862.337 106.917C863.535 105.644 863.453 103.694 862.145 102.323C861.135 101.265 861.13 101.237 861.953 101.238C862.796 101.239 862.798 101.219 862.809 92.9265L862.819 84.6135L864.171 84.6152C864.914 84.6162 865.516 84.4862 865.509 84.3269C865.501 84.1676 864.054 81.9472 862.294 79.393C859.269 75.005 859.01 74.7382 857.596 74.5539L856.099 74.3587L853.286 64.8822C850.607 55.8559 845.218 37.4262 844.295 34.1319C844.057 33.281 843.55 31.4971 843.169 30.1673C842.788 28.8379 842.525 27.75 842.585 27.75C842.644 27.7501 843.246 28.6433 843.922 29.7345C844.597 30.8261 845.222 31.6477 845.309 31.5608C845.396 31.4736 845.293 30.1287 845.079 28.5721C844.866 27.0152 844.785 25.6479 844.899 25.5336C845.072 25.3618 847.241 25.8753 850.513 26.8631C850.843 26.9625 850.003 25.999 848.646 24.7217L846.178 22.3991L847.684 21.7611C848.512 21.4099 849.885 20.8383 850.735 20.4902L852.281 19.858L850.736 19.5773C849.887 19.4231 848.453 19.2856 847.55 19.2724C846.647 19.2589 845.909 19.1567 845.909 19.0449C845.909 18.9332 846.522 17.629 847.27 16.1468C848.017 14.6645 848.527 13.4515 848.402 13.4513C848.277 13.4512 847.126 14.257 845.844 15.2417C844.28 16.4434 843.423 16.8854 843.238 16.5848C843.086 16.3386 842.74 15.0089 842.468 13.6301C842.196 12.2514 841.837 11.1231 841.671 11.1229C841.504 11.1226 841.143 12.25 840.868 13.6281C840.592 15.0062 840.242 16.335 840.09 16.5807C839.904 16.8809 839.048 16.4367 837.487 15.2311C836.208 14.2431 835.059 13.4344 834.934 13.4342C834.809 13.434 835.316 14.6484 836.06 16.1325C836.804 17.6167 837.413 18.9224 837.413 19.0341C837.412 19.1459 836.674 19.2462 835.771 19.2575C834.868 19.2683 833.434 19.4022 832.584 19.5542L831.039 19.831L832.583 20.4671C833.432 20.8173 834.797 21.3898 835.616 21.7392L837.104 22.3748L834.726 24.5235C833.419 25.7054 832.411 26.7345 832.486 26.8104C832.562 26.8866 833.96 26.5377 835.593 26.0356C838.991 24.9909 838.816 24.7986 838.154 28.856C837.932 30.2113 837.834 31.4033 837.935 31.5047C838.036 31.6065 838.649 30.846 839.297 29.8152C839.946 28.7841 840.48 28.0787 840.483 28.2469C840.492 28.6374 833.688 51.5657 829.735 64.4656L826.715 74.3213L824.888 74.4365L823.06 74.5521L819.767 79.3223C817.956 81.9458 816.474 84.1965 816.474 84.3233C816.474 84.4506 817.256 84.5556 818.212 84.5568L819.95 84.559L819.939 92.872C819.929 101.045 819.942 101.185 820.735 101.186C821.512 101.187 821.504 101.232 820.541 102.375C819.331 103.811 819.258 105.365 820.336 106.74L821.135 107.76L820.335 107.759C819.566 107.758 819.534 107.957 819.528 112.784L819.521 117.81L815.08 117.805C811.109 117.8 810.638 117.871 810.633 118.476C810.631 118.848 810.52 119.805 810.387 120.602C810.184 121.819 810.255 122.052 810.825 122.053C811.391 122.053 811.468 122.296 811.287 123.503C811.168 124.301 810.578 130.033 809.978 136.243L808.885 147.533L807.715 147.646L806.545 147.759L806.429 150.756C806.321 153.524 806.37 153.752 807.078 153.753C807.499 153.754 807.925 153.886 808.023 154.046C808.122 154.207 807.798 158.426 807.303 163.422C806.807 168.417 806.28 173.853 806.131 175.501C805.982 177.149 805.745 178.488 805.604 178.476C805.463 178.464 803.179 175.037 800.529 170.859C797.88 166.682 793.673 160.143 791.181 156.33L786.65 149.396L787.653 148.206C788.873 146.759 788.711 145.059 787.239 143.854C786.338 143.116 786.275 142.834 786.28 139.503L786.284 135.941L791.521 135.947C794.401 135.951 796.668 135.809 796.56 135.633C796.451 135.456 795.181 134.818 793.739 134.215C792.296 133.613 790.963 132.985 790.777 132.822C790.591 132.658 791.983 131.739 793.87 130.779L797.3 129.034L791.796 129.008C788.398 128.991 786.293 128.833 786.293 128.594C786.294 128.382 786.033 128.207 785.715 128.207C785.219 128.206 785.134 129.303 785.126 135.754L785.116 143.302L784.192 143.722C783.289 144.133 782.41 145.519 782.408 146.535C782.408 146.815 782.772 147.509 783.216 148.076L784.025 149.108L780.648 154.602C773.806 165.733 766.975 176.856 763.632 182.31C761.743 185.391 759.601 188.848 758.871 189.991L757.544 192.071L756.283 189.7C753.091 183.701 749.409 180.514 744.609 179.597C743.501 179.385 742.375 179.278 742.108 179.36C741.84 179.442 741.1 179.597 740.462 179.704L739.304 179.901L739.269 174.033C739.173 157.612 732.212 144.627 722.016 141.849C712.595 139.284 703.122 148.045 699.351 162.81L698.928 164.464L697.231 163.069C689.42 156.644 680.163 161.33 674.719 174.464C673.329 177.819 671.689 184.062 671.318 187.413C671 190.292 670.785 191.085 670.325 191.084C670.118 191.084 669.968 188.608 669.972 185.269L669.979 179.454L666.6 179.562L663.22 179.669L663.101 181.699L662.981 183.729L660.319 183.725L657.656 183.722L657.541 181.692C657.442 179.923 657.315 179.646 656.558 179.537L655.69 179.413L655.7 171.32L655.71 163.227L656.869 163.228C657.506 163.229 658.028 163.028 658.028 162.78C658.028 162.533 654.215 154.676 649.553 145.32C644.892 135.964 641.079 128.092 641.079 127.827C641.079 127.561 641.341 127.128 641.66 126.864C642.6 126.084 642.35 124.57 641.085 123.383C639.995 122.362 639.928 122.126 639.931 119.36L639.935 116.422L644.647 116.428C647.238 116.431 649.194 116.288 648.992 116.111C648.791 115.933 647.63 115.366 646.413 114.851C645.195 114.336 644.197 113.786 644.193 113.629C644.19 113.472 645.448 112.693 646.989 111.897C650.194 110.241 650.412 110.346 643.322 110.154L639.17 110.041L639.162 116.518C639.158 120.246 639.002 122.994 638.795 122.994C637.408 122.992 636.69 126.018 637.789 127.237C638.301 127.805 638.037 128.427 635.229 133.257C633.506 136.221 630.043 142.296 627.533 146.758C625.022 151.221 621.994 156.515 620.802 158.523C619.61 160.531 618.635 162.4 618.635 162.677C618.634 162.994 619.133 163.18 619.986 163.182L621.337 163.183L621.327 171.146C621.318 178.783 621.285 179.117 620.544 179.309C619.892 179.48 619.771 179.836 619.769 181.592L619.766 183.674L616.87 183.67L613.973 183.666L613.976 181.54L613.979 179.413L610.31 179.409L606.641 179.404L606.534 191.873C606.475 198.731 606.435 205.213 606.443 206.276C606.457 207.95 606.73 208.613 608.472 211.22C609.58 212.875 610.668 214.632 610.89 215.122C611.199 215.803 610.776 219.805 609.103 232.024C606.298 252.509 606.674 250.615 605.444 250.471L604.433 250.352L603.208 236.624C602.535 229.074 601.023 211.933 599.848 198.535C598.673 185.136 596.018 155.218 593.948 132.051L590.183 89.9289L591.132 89.0508C592.102 88.1531 592.28 86.9547 591.727 85.042C591.49 84.2212 591.785 83.712 593.674 81.6756C597.746 77.2876 599.608 71.6592 599.59 63.7862C599.582 59.9974 599.431 58.9138 598.569 56.4602C596.753 51.2918 594.971 49.1811 584.908 40.2738C578.051 34.2043 575.827 31.8681 573.326 28.1035L571.604 25.5108L572.441 23.7851C573.22 22.1791 573.238 21.9634 572.702 20.6736C572.385 19.9115 571.682 19.0851 571.141 18.8374C570.169 18.3926 570.156 18.3265 570.161 14.0111L570.167 9.63576L576.757 9.53859L583.347 9.44102L579.463 7.7441C577.326 6.8111 575.578 5.93504 575.578 5.79739C575.579 5.65975 577.361 4.65015 579.54 3.55367L583.501 1.56011L576.839 1.52882C572.67 1.5096 570.177 1.35331 570.177 1.11127C570.178 0.898613 569.917 0.724289 569.599 0.723883C569.101 0.72325 569.017 1.95927 569.006 9.51945ZM1167.11 16.0509C1166.73 16.4255 1166.8 19.0552 1167.19 19.4826C1167.38 19.6846 1167.61 20.6914 1167.72 21.7196C1167.91 23.4876 1167.85 23.6287 1166.7 24.3267C1165.27 25.1998 1163.35 25.2767 1161.89 24.5197C1161.13 24.1243 1160.71 23.4704 1160.36 22.1375C1159.73 19.7812 1157.4 17.3242 1155.78 17.3221C1153.36 17.3191 1151.79 19.514 1151.78 22.8964C1151.78 25.2473 1152.74 28.1445 1153.52 28.1455C1153.79 28.1458 1154.11 28.4072 1154.23 28.7264C1154.35 29.0455 1154.73 29.307 1155.07 29.3074C1155.41 29.3078 1155.58 29.141 1155.45 28.9371C1155.22 28.5575 1155.79 27.3275 1156.76 26.1197C1157.06 25.7481 1157.8 25.4444 1158.41 25.4451C1159.37 25.4464 1159.5 25.5877 1159.5 26.6258C1159.5 28.7632 1161.26 31.1546 1163.45 31.9895L1164.52 32.3933L1164.51 36.5703C1164.51 40.2686 1164.42 40.823 1163.73 41.4082C1162.82 42.1912 1162.74 43.1906 1163.52 44.2271C1163.94 44.7797 1164.09 46.1081 1164.1 49.2519L1164.1 53.5256L1161.82 57.8277C1160.56 60.1939 1158.14 64.6184 1156.44 67.6599C1154.74 70.7015 1149.9 79.4495 1145.69 87.0999C1141.48 94.7502 1135.89 104.904 1133.27 109.663C1130.65 114.423 1128.19 118.536 1127.8 118.804C1127.42 119.072 1125.29 121.496 1123.06 124.191C1120.18 127.684 1119.05 129.33 1119.14 129.924C1119.49 132.161 1123.02 133.926 1126.15 133.429L1127.7 133.183L1127.68 146.625L1127.66 160.067L1131.36 167.198L1135.06 174.329L1134.04 184.644C1133.48 190.318 1133.02 195.177 1133.02 195.443C1133.03 196.347 1132.45 195.927 1131.41 194.275L1130.37 192.627L1131.56 187.883C1132.22 185.274 1132.67 183.054 1132.57 182.949C1132.15 182.535 1124.41 181.24 1118.37 180.574C1113.62 180.051 1108.84 179.866 1099.64 179.847C1087.13 179.822 1083.06 180.078 1072.02 181.587C1065.33 182.502 1064.68 182.645 1064.68 183.218C1064.67 183.461 1065.54 185.662 1066.61 188.109L1068.54 192.558L1057.34 214.965C1046.61 236.458 1046.17 237.421 1046.62 238.537C1047.03 239.544 1048.8 241.129 1049.95 241.516C1050.15 241.584 1050.38 242.596 1050.46 243.766C1050.55 244.936 1050.79 246.589 1051 247.44C1051.22 248.291 1051.5 250.988 1051.63 253.434C1051.76 255.879 1052.2 263.275 1052.6 269.868C1053 276.46 1053.69 287.858 1054.13 295.195C1055.61 320.003 1056.28 329.635 1056.56 329.913C1056.87 330.221 1336.71 330.549 1337.01 330.242C1337.12 330.136 1336.09 322.765 1334.73 313.862C1333.37 304.959 1332.29 297.643 1332.32 297.604C1332.36 297.565 1333.83 298.374 1335.59 299.403C1339.35 301.604 1344.67 303.461 1348.9 304.048C1350.57 304.278 1354.52 304.47 1357.69 304.474L1363.45 304.482L1363.45 305.931C1363.44 306.729 1363.09 312.079 1362.66 317.82C1362.24 323.561 1361.88 328.737 1361.88 329.322L1361.88 330.385L1367.52 330.392L1373.17 330.4L1372.94 326.823C1372.82 324.856 1372.63 320.288 1372.52 316.673C1372.41 313.057 1372.22 308.838 1372.1 307.296L1371.89 304.492L1373.63 304.494C1380.54 304.503 1388.64 301.896 1394.65 297.721L1397.07 296.044L1397.06 297.287C1397.06 297.972 1396.54 303.924 1395.91 310.516C1395.28 317.108 1394.66 323.892 1394.53 325.594C1394.39 327.295 1394.2 329.078 1394.1 329.556L1393.92 330.426L1487.97 330.546L1582.03 330.665L1581.82 329.215C1581.52 326.991 1580.28 316.719 1578.62 302.629C1577.34 291.744 1577.15 289.139 1577.34 284.915C1577.55 280.129 1577.53 279.956 1576.75 279.751C1575.82 279.507 1575.98 280.413 1574.37 266.665C1573.75 261.347 1573.14 256.432 1573.02 255.74C1572.86 254.77 1572.95 254.483 1573.41 254.484C1573.85 254.484 1574 254.075 1574.01 252.938C1574.01 251.685 1573.87 251.391 1573.29 251.391C1572.75 251.39 1572.5 251.013 1572.33 249.939C1571.87 247.138 1571.87 247.136 1574.21 247.139C1575.37 247.14 1576.33 247.035 1576.33 246.905C1576.33 246.775 1575.45 245.45 1574.37 243.96L1572.41 241.252L1573.55 239.652C1575.26 237.261 1576.6 234.429 1577.33 231.649C1578.26 228.1 1577.96 221.951 1576.69 218.524C1574.78 213.35 1570.31 208.052 1564.8 204.428C1557.81 199.831 1554.12 195.25 1551.9 188.415C1551.25 186.429 1551.25 186.218 1552.07 181.842C1552.53 179.355 1553 177.016 1553.1 176.645C1553.21 176.273 1553.13 175.968 1552.92 175.968C1552.71 175.967 1552.43 176.471 1552.29 177.086C1552.05 178.189 1552.03 178.197 1550.89 177.625C1549.39 176.876 1547.46 177.229 1546.3 178.466L1545.41 179.413L1544.28 178.457C1543.65 177.932 1542.73 177.398 1542.23 177.271C1540.98 176.956 1538.7 177.762 1538 178.763L1537.42 179.585L1536.61 178.708C1534.85 176.817 1532.1 176.707 1530.45 178.462L1529.54 179.426L1528.55 178.482C1528.01 177.962 1527.09 177.421 1526.52 177.278C1525.19 176.947 1522.89 177.697 1522.2 178.69C1521.67 179.447 1521.65 179.444 1520.7 178.491C1519.3 177.09 1517.28 176.806 1515.63 177.777L1514.31 178.556L1514.06 177.237C1513.93 176.512 1513.65 175.918 1513.44 175.917C1513.24 175.917 1513.15 176.308 1513.26 176.787C1513.36 177.266 1513.71 179.572 1514.04 181.911C1514.58 185.807 1514.58 186.344 1514 188.291C1512.17 194.408 1507.8 200.095 1502.29 203.524C1501.37 204.099 1500.53 204.481 1500.42 204.373C1500.2 204.154 1499.94 200.683 1498.78 182.665C1498.34 175.86 1497.75 166.985 1497.47 162.944C1497.06 156.989 1497.06 155.451 1497.46 154.825C1497.73 154.4 1499.32 152.503 1500.99 150.61C1503.82 147.389 1504.02 147.055 1504.02 145.394C1504.03 144.418 1504 137.661 1503.96 130.377L1503.89 117.134L1500.41 117.13L1496.94 117.125L1496.93 119.252L1496.93 121.379L1493.84 121.375L1490.75 121.371L1490.75 119.271C1490.76 117.388 1490.67 117.158 1489.89 117.047C1489.02 116.922 1489.02 116.91 1488.93 108.319L1488.83 99.7158L1490.19 99.7175C1490.94 99.7185 1491.55 99.635 1491.55 99.5321C1491.55 99.4293 1487.41 91.019 1482.36 80.8421C1473.17 62.3438 1473.17 62.3392 1473.89 61.45C1474.28 60.9606 1474.61 60.1831 1474.61 59.7226C1474.61 58.6609 1473.58 57.1648 1472.85 57.1638C1472.41 57.1633 1472.3 56.4594 1472.3 53.6945L1472.3 50.2258L1477.42 50.1245L1482.53 50.0231L1479.83 48.8961C1478.35 48.2763 1476.98 47.635 1476.8 47.4713C1476.61 47.3075 1477.83 46.475 1479.5 45.6211L1482.55 44.0687L1477.43 44.0428C1474.29 44.0269 1472.31 43.8678 1472.31 43.6304C1472.31 43.4177 1472.14 43.2435 1471.93 43.2432C1471.68 43.2429 1471.54 45.7316 1471.53 49.9364L1471.52 56.6301L1470.36 57.4862C1469.02 58.4778 1468.78 60.3087 1469.85 61.487C1470.45 62.159 1470.44 62.3025 1469.58 63.8371C1467.91 66.8482 1455.98 87.8162 1452.7 93.5144C1450.92 96.6127 1449.45 99.2644 1449.45 99.4067C1449.45 99.5493 1450.15 99.6666 1451.01 99.6677L1452.56 99.6697L1452.44 108.273C1452.33 116.864 1452.33 116.875 1451.46 116.998C1450.68 117.108 1450.59 117.337 1450.59 119.22L1450.59 121.32L1447.69 121.316L1444.79 121.312L1444.79 119.186L1444.8 117.059L1441 117.054L1437.2 117.049L1436.93 124.651C1436.79 128.832 1436.66 135.557 1436.66 139.596L1436.65 146.939L1439.33 151.099L1442 155.259L1441.41 160.999C1441.08 164.156 1440.74 166.971 1440.65 167.255C1440.55 167.572 1439.9 167.037 1438.99 165.873C1438.16 164.829 1435.7 162.331 1433.51 160.323C1426.45 153.848 1423.87 151.298 1423.07 149.992L1422.28 148.714L1423.29 147.925C1424.06 147.317 1424.29 146.79 1424.29 145.634C1424.29 144.38 1424.07 143.953 1422.94 143.05C1421.6 141.971 1421.59 141.961 1421.6 138.779L1421.6 135.589L1427.09 135.596C1430.1 135.6 1432.4 135.456 1432.2 135.276C1432 135.096 1430.66 134.456 1429.21 133.854C1427.77 133.251 1426.5 132.618 1426.4 132.448C1426.3 132.278 1427.65 131.396 1429.41 130.488L1432.62 128.836L1427.11 128.722C1423.88 128.655 1421.61 128.453 1421.61 128.232C1421.61 128.025 1421.44 127.856 1421.22 127.855C1420.98 127.855 1420.84 130.465 1420.83 134.911L1420.82 141.968L1419.47 143.046C1417.75 144.415 1417.59 146.311 1419.08 147.8C1419.61 148.333 1420.04 148.891 1420.04 149.04C1420.03 149.81 1416.16 153.847 1411.34 158.104C1403.4 165.114 1400.59 168.666 1399.09 173.589C1398.05 176.994 1398.2 182.732 1399.4 185.439C1400.11 187.018 1402.98 190.078 1404.67 191.052C1405.3 191.41 1405.3 191.565 1404.77 193.082L1404.18 194.724L1405.14 194.726C1405.67 194.726 1406.2 194.977 1406.31 195.283C1406.51 195.803 1403.91 225.948 1403.49 227.901L1403.31 228.793L1401.75 227.555C1400.23 226.35 1396.35 224.514 1395.27 224.494C1394.87 224.487 1394.8 224.133 1395 223.035C1396.07 217.041 1395.57 209.941 1393.66 204.184C1388.56 188.802 1375.43 181.638 1363.22 187.581C1359.61 189.335 1355.19 193.609 1352.8 197.644C1350.99 200.716 1349.05 206.245 1348.67 209.432L1348.43 211.484L1345.28 211.474C1342.63 211.466 1341.8 211.629 1340.01 212.514C1335.12 214.928 1331.16 220.388 1329.25 227.359C1328.87 228.732 1328.39 229.845 1328.19 229.831C1327.99 229.817 1326.4 228.544 1324.65 227.002C1322.57 225.169 1321.26 223.683 1320.88 222.713C1320.55 221.896 1318.22 216.761 1315.7 211.3C1303.84 185.602 1304.17 186.392 1304.96 185.363C1306.05 183.964 1305.88 182.337 1304.52 181.065C1303.65 180.248 1303.36 179.636 1303.37 178.588L1303.37 177.197L1306.65 177.201C1308.46 177.203 1309.93 177.048 1309.93 176.856C1309.93 176.664 1309.29 175.991 1308.51 175.359L1307.08 174.212L1308.54 172.519L1309.99 170.826L1306.99 170.707C1305.34 170.643 1303.79 170.424 1303.55 170.223C1302.75 169.554 1302.6 170.324 1302.6 175.26C1302.59 179.981 1302.56 180.187 1301.63 181.061C1300.48 182.131 1300.31 184.29 1301.28 185.363C1301.86 186.007 1301.27 187.328 1292.38 205.197L1282.86 224.341L1279.75 227.569C1278.05 229.344 1276.65 230.908 1276.65 231.045C1276.65 231.182 1277.87 231.296 1279.35 231.297C1281.68 231.3 1282.05 231.395 1282.03 231.978C1282.02 232.349 1281.1 237.699 1279.99 243.864L1277.97 255.075L1274.79 255.183C1271.61 255.291 1271.6 255.294 1271.59 256.339C1271.59 256.915 1271.48 258.039 1271.35 258.836C1271.11 260.276 1271.09 260.286 1269.26 260.283C1267.55 260.281 1267.39 260.2 1267.19 259.218C1266.96 258.064 1264.15 237.194 1260.46 209.142L1258.13 191.454L1258.99 190.298C1259.75 189.276 1259.79 188.978 1259.41 187.72C1258.99 186.332 1259.02 186.249 1260.8 184.307C1264.45 180.315 1266.03 175.561 1266.08 168.422L1266.12 163.755L1264.46 160.401C1262.55 156.522 1260.16 153.765 1254.55 148.981C1247.6 143.054 1243.94 139.144 1242.25 135.834C1241.66 134.688 1241.66 134.486 1242.19 133.718C1242.52 133.252 1242.79 132.41 1242.79 131.848C1242.79 130.68 1241.46 128.787 1240.64 128.786C1240.2 128.785 1240.09 128.01 1240.1 124.918L1240.1 121.052L1245.97 121.059C1249.2 121.064 1251.68 120.922 1251.47 120.746C1251.27 120.57 1249.76 119.848 1248.12 119.143C1246.47 118.438 1245.13 117.749 1245.13 117.612C1245.13 117.476 1246.65 116.588 1248.51 115.639L1251.89 113.914L1246 113.8C1242.51 113.732 1240.11 113.532 1240.11 113.309C1240.11 113.102 1239.94 112.932 1239.72 112.932C1239.48 112.931 1239.33 115.831 1239.33 120.858C1239.32 127.466 1239.23 128.784 1238.77 128.783C1237.94 128.782 1236.61 130.678 1236.61 131.874C1236.61 132.454 1236.97 133.391 1237.41 133.955L1238.22 134.982L1237.25 136.617C1235.67 139.3 1231.67 143.558 1226.74 147.824C1221.03 152.761 1217.27 156.72 1215.74 159.393C1214.08 162.278 1213.27 166.253 1213.57 170.001C1214.07 176.387 1215.72 180.762 1218.91 184.195C1220.6 186.013 1220.65 186.151 1220.44 187.938C1220.24 189.597 1220.32 189.896 1221.25 190.753L1222.28 191.712L1219.93 210.015C1218.64 220.082 1216.77 234.321 1215.77 241.656C1214.78 248.992 1213.9 255.602 1213.8 256.346C1213.71 257.091 1213.54 258.273 1213.43 258.973L1213.23 260.247L1210.65 260.129L1208.06 260.012L1207.74 257.615L1207.43 255.218L1205.63 255.1L1203.82 254.98L1201.44 237.385C1200.12 227.707 1197.6 209.609 1195.83 197.166L1192.61 174.543L1196.25 167.438L1199.88 160.333L1199.9 146.653L1199.92 132.972L1200.98 133.271C1203.46 133.969 1207.14 133.214 1208.3 131.767C1209.49 130.29 1209.27 129.705 1206.26 126.386C1204.63 124.596 1202.22 121.999 1200.9 120.615C1198.27 117.876 1200.59 122.23 1174.35 70.7782L1165.6 53.6358L1165.78 49.1149C1165.88 46.6285 1166.09 43.9755 1166.23 43.2194C1166.43 42.1939 1166.35 41.7159 1165.89 41.3352C1165.4 40.9251 1165.28 39.9788 1165.28 36.511L1165.29 32.1963L1166.38 31.784C1166.99 31.5574 1167.98 30.7166 1168.59 29.9158C1169.5 28.7218 1169.73 27.9983 1169.85 25.8966C1169.97 23.5881 1170.11 23.2279 1171.2 22.2715C1172.04 21.5434 1172.22 21.2096 1171.8 21.209C1171.03 21.208 1170.67 20.3535 1171.13 19.6264C1171.69 18.7471 1171.55 17.3422 1170.91 17.3414C1170.59 17.341 1170.33 17.0901 1170.33 16.7835C1170.33 15.9676 1169.61 15.6562 1168.96 16.1929C1168.55 16.5376 1168.26 16.5469 1167.88 16.2282C1167.6 15.9912 1167.25 15.9111 1167.11 16.0509ZM829.599 89.0974C828.698 89.4261 827.262 90.8409 826.662 91.9912C826.296 92.6949 826.117 94.3638 826.113 97.1137C826.108 100.935 826.059 101.193 825.336 101.192C824.911 101.191 824.563 101.365 824.563 101.578C824.562 101.79 824.745 101.964 824.968 101.965C825.191 101.965 825.635 102.592 825.953 103.358C826.486 104.64 826.473 104.87 825.785 106.258L825.038 107.765L832.395 107.774L839.752 107.783L838.913 106.887C837.718 105.611 837.805 103.661 839.117 102.294L840.156 101.211L838.732 101.209L837.308 101.207L837.312 97.2439C837.318 92.6803 836.77 91.1245 834.659 89.7086C833.393 88.8598 831.033 88.5749 829.599 89.0974ZM848.097 89.7256C845.982 91.1362 845.43 92.6906 845.424 97.2542L845.418 101.217L844.26 101.216C842.893 101.214 842.848 101.348 843.872 102.375C844.814 103.321 844.901 105.699 844.037 106.929L843.435 107.788L850.56 107.797L857.685 107.806L856.989 106.433C856.22 104.919 856.492 102.96 857.581 102.157C858.371 101.575 858.312 101.234 857.423 101.233C856.742 101.232 856.673 100.861 856.56 96.5631L856.437 91.8945L854.813 90.3745C853.382 89.0352 852.963 88.8541 851.3 88.852C849.979 88.8503 849.016 89.1132 848.097 89.7256ZM515.602 101.84C516.233 102.839 516.75 103.884 516.749 104.162C516.748 105.198 517.357 104.586 518.276 102.629C518.797 101.518 519.291 100.479 519.373 100.319C519.455 100.16 518.382 100.028 516.988 100.026L514.454 100.023L515.602 101.84ZM506.234 101.269C506.682 101.749 507.365 102.851 507.753 103.72L508.456 105.301L509.63 102.853L510.803 100.405L508.111 100.402L505.419 100.398L506.234 101.269ZM524.269 102.259C524.79 103.27 525.331 104.445 525.469 104.87C525.692 105.556 525.764 105.512 526.106 104.484C526.319 103.847 527.004 102.673 527.628 101.876L528.763 100.428L526.041 100.425L523.32 100.421L524.269 102.259ZM498.098 101.059L496.628 101.21L497.569 101.952C498.086 102.361 498.811 103.438 499.179 104.346L499.848 105.998L500.6 104.259C501.013 103.302 501.719 102.129 502.168 101.651L502.985 100.782L501.276 100.845C500.336 100.879 498.906 100.975 498.098 101.059ZM511.372 101.813C510.488 102.935 509.409 106.175 509.407 107.713L509.406 108.695L510.042 107.74C511.016 106.281 511.757 105.819 513.124 105.821C514.074 105.822 514.611 106.125 515.361 107.081C516.528 108.566 516.626 108.031 515.739 105.025C514.552 101 512.944 99.8175 511.372 101.813ZM520.11 101.495C519.192 102.507 518.402 104.598 518.107 106.794L517.848 108.727L518.689 107.469C520.139 105.298 522.769 105.308 524.094 107.489C525.003 108.987 525.057 108.324 524.272 105.289C523.264 101.396 521.586 99.8659 520.11 101.495ZM532.415 102.241C532.944 103.023 533.483 104.112 533.612 104.659C534.018 106.374 534.182 106.343 535.093 104.381C535.58 103.332 536.35 102.213 536.803 101.896C537.594 101.344 537.554 101.31 535.826 101.071C534.835 100.934 533.446 100.821 532.739 100.82L531.453 100.818L532.415 102.241ZM492.228 101.736C492.016 101.809 490.868 101.977 489.678 102.109L487.514 102.35L488.553 103.466C489.125 104.08 489.947 105.507 490.381 106.638C491.162 108.675 491.171 108.683 491.44 107.534C492.044 104.958 492.53 103.788 493.453 102.693L494.421 101.544L493.518 101.574C493.021 101.59 492.441 101.663 492.228 101.736ZM502.954 102.425C501.985 103.476 500.911 106.529 500.911 108.236L500.911 109.479L501.663 108.248C503.099 105.896 504.519 105.656 506.527 107.426L507.921 108.654L507.651 107.137C507.093 104.004 505.669 101.559 504.401 101.557C504.046 101.557 503.395 101.947 502.954 102.425ZM528.606 102.279C527.69 103.289 526.899 105.377 526.598 107.578L526.334 109.511L527.139 108.248C527.582 107.553 528.379 106.786 528.911 106.545C530.205 105.956 531.569 106.592 532.578 108.255C533.234 109.335 533.347 109.398 533.349 108.685C533.353 107.344 531.934 103.141 531.205 102.332C530.368 101.404 529.416 101.384 528.606 102.279ZM540.428 102.277C541.263 103.221 542.622 106.69 542.621 107.874C542.619 109.018 543.183 108.349 543.775 106.504C544.037 105.688 544.755 104.447 545.372 103.746L546.494 102.47L545.237 102.246C544.546 102.122 543.024 101.901 541.856 101.756C539.743 101.492 539.736 101.494 540.428 102.277ZM494.583 103.048C493.66 104.066 492.413 107.49 492.418 108.989L492.423 110.241L493.249 108.954C493.981 107.812 495.282 106.958 496.288 106.96C496.479 106.96 497.249 107.5 497.998 108.16L499.359 109.36L499.11 108.065C498.184 103.251 496.296 101.158 494.583 103.048ZM536.86 103.392C535.972 104.518 534.896 107.759 534.896 109.302C534.896 110.278 534.91 110.274 535.668 109.032C536.682 107.372 538.047 106.74 539.339 107.331C539.871 107.574 540.664 108.343 541.103 109.039L541.9 110.304L541.632 108.569C540.814 103.267 538.736 101.011 536.86 103.392ZM483.344 102.971C482.706 103.061 482.051 103.264 481.886 103.423C481.722 103.58 482.155 105 482.848 106.577L484.108 109.445L484.381 106.996C484.532 105.65 484.929 104.13 485.263 103.621C485.938 102.593 485.962 102.601 483.344 102.971ZM486.025 104.808C485.716 105.545 485.463 106.728 485.462 107.436C485.461 108.67 485.515 108.718 486.756 108.574C488.065 108.423 488.407 108.685 489.993 111.066C490.4 111.678 490.436 111.554 490.231 110.239C489.786 107.37 487.904 103.469 486.966 103.468C486.757 103.468 486.334 104.071 486.025 104.808ZM546.145 104.542C545.147 105.808 543.85 109.245 543.566 111.374L543.348 113.013L543.969 111.663C544.889 109.665 546.076 108.57 547.322 108.571C548.335 108.573 548.413 108.464 548.415 107.044C548.417 105.483 547.759 103.545 547.227 103.545C547.064 103.544 546.577 103.993 546.145 104.542ZM511.423 107.656C510.582 108.862 509.789 110.998 509.787 112.061C509.787 112.701 510.133 112.777 513.077 112.781L516.367 112.785L516.116 111.721C515.72 110.036 514.838 108.039 514.16 107.287C513.268 106.297 512.278 106.431 511.423 107.656ZM519.889 107.686C519.03 108.89 517.985 112.23 518.352 112.598C518.474 112.72 519.962 112.771 521.658 112.711L524.744 112.602L524.271 110.733C523.329 107.008 521.353 105.634 519.889 107.686ZM503.104 108.051C502.519 108.696 501.291 111.659 501.29 112.428C501.29 112.614 502.68 112.768 504.38 112.77C507.833 112.774 507.924 112.68 506.879 110.165C505.744 107.437 504.362 106.663 503.104 108.051ZM528.594 108.083C528.009 108.729 526.781 111.692 526.78 112.46C526.78 112.646 528.17 112.8 529.869 112.802C533.323 112.807 533.414 112.712 532.369 110.197C531.234 107.469 529.852 106.695 528.594 108.083ZM494.428 109.181C494.021 109.765 493.495 110.808 493.26 111.499L492.833 112.755L495.903 112.759C497.591 112.761 498.973 112.671 498.973 112.557C498.973 112.444 498.707 111.711 498.381 110.927C497.159 107.99 495.706 107.348 494.428 109.181ZM537.089 108.868C536.743 109.25 536.201 110.293 535.885 111.186L535.311 112.809L538.366 112.813L541.421 112.817L540.851 111.192C540.177 109.272 539.276 108.174 538.372 108.173C538.013 108.173 537.436 108.485 537.089 108.868ZM486.297 110.242C485.393 112.222 485.661 112.746 487.579 112.748C488.535 112.75 489.318 112.603 489.318 112.421C489.318 111.914 487.636 109.539 487.167 109.384C486.939 109.309 486.547 109.695 486.297 110.242ZM546.405 110.011C545.784 110.721 544.932 112.22 544.932 112.603C544.932 112.723 545.637 112.822 546.499 112.823L548.066 112.825L547.949 111.212C547.818 109.401 547.294 108.993 546.405 110.011ZM159.321 132.45C157.866 132.884 156.408 134.252 155.745 135.803C155.414 136.58 155.212 138.502 155.209 140.926C155.205 144.195 155.109 144.804 154.597 144.804C154.094 144.803 154.126 144.977 154.789 145.823C155.228 146.384 155.587 147.317 155.587 147.898C155.586 148.479 155.224 149.412 154.783 149.971L153.982 150.989L161.415 150.999L168.849 151.008L168.01 150.112C166.931 148.96 166.897 146.809 167.94 145.692L168.705 144.871L167.652 144.748L166.598 144.626L166.41 140.179C166.193 135.032 165.599 133.747 162.941 132.679C161.22 131.986 160.935 131.969 159.321 132.45ZM178.586 132.346C177.462 132.644 175.76 133.929 175.203 134.901C174.933 135.37 174.632 137.709 174.521 140.189L174.322 144.635L173.252 144.757L172.183 144.879L172.961 145.872C173.96 147.147 173.95 148.706 172.935 149.995L172.134 151.012L179.567 151.022L187 151.031L186.162 150.136C185.07 148.969 185.056 146.919 186.133 145.775L186.939 144.918L186.135 144.661C185.384 144.422 185.33 144.12 185.333 140.274C185.337 135.817 184.84 134.32 182.948 133.096C181.921 132.432 179.704 132.051 178.586 132.346ZM885.524 148.326C884.795 148.592 883.205 150.021 883.205 150.412C883.204 150.573 883.534 150.81 883.937 150.939C884.34 151.067 885.119 151.623 885.667 152.173L886.663 153.173L887.986 152.014C888.713 151.376 889.509 150.787 889.754 150.706C890.445 150.476 889.866 149.441 888.638 148.713C887.523 148.051 886.595 147.936 885.524 148.326ZM893.548 148.666C892.968 148.98 892.32 149.562 892.107 149.959C891.784 150.561 891.907 150.759 892.84 151.148C893.457 151.405 894.257 151.943 894.619 152.344C895.261 153.056 895.303 153.052 896.383 152.145C896.991 151.633 897.838 151.105 898.264 150.97C898.892 150.771 898.963 150.584 898.642 149.981C898.184 149.123 896.312 148.06 895.296 148.081C894.914 148.089 894.127 148.353 893.548 148.666ZM902.131 148.71C900.368 149.952 900.121 150.534 901.165 150.985C901.674 151.204 902.536 151.805 903.081 152.319L904.072 153.253L904.629 152.459C904.935 152.022 905.715 151.446 906.361 151.179C907.774 150.595 907.802 150.4 906.627 149.292C905.372 148.109 903.354 147.847 902.131 148.71ZM911.401 148.359C910.729 148.604 909.081 150.042 909.081 150.383C909.081 150.51 909.7 150.949 910.458 151.359C911.216 151.768 912.005 152.422 912.212 152.81C912.559 153.462 912.662 153.43 913.537 152.392C914.058 151.774 914.921 151.159 915.455 151.025C916.373 150.796 916.394 150.734 915.838 149.883C914.898 148.442 912.98 147.783 911.401 148.359ZM919.424 148.68C918.844 149.004 918.201 149.586 917.993 149.973C917.68 150.557 917.841 150.783 918.937 151.309C919.664 151.657 920.462 152.27 920.712 152.67C921.137 153.355 921.255 153.311 922.654 151.956C923.473 151.162 924.143 150.252 924.144 149.935C924.145 148.486 921.179 147.697 919.424 148.68ZM889.038 152.077C887.891 152.711 887.094 154.101 887.074 155.498C887.06 156.503 887.155 156.562 888.797 156.564L890.535 156.566L890.538 154.053C890.54 152.67 890.411 151.545 890.251 151.553C890.092 151.56 889.546 151.796 889.038 152.077ZM891.571 151.799C891.429 151.94 891.312 153.071 891.31 154.312L891.307 156.567L893.022 156.569C893.966 156.57 894.847 156.394 894.981 156.177C895.395 155.509 894.398 153.145 893.357 152.323C892.298 151.487 891.977 151.392 891.571 151.799ZM897.098 152.611C896.339 153.294 895.836 154.19 895.686 155.123L895.454 156.572L897.243 156.574L899.031 156.577L899.035 154.063C899.036 152.673 898.868 151.55 898.658 151.55C898.448 151.55 897.747 152.027 897.098 152.611ZM900.193 154.065L900.19 156.578L901.928 156.58C903.614 156.583 903.666 156.547 903.667 155.384C903.668 154.536 903.285 153.8 902.358 152.869C901.636 152.145 900.855 151.553 900.621 151.552C900.356 151.552 900.195 152.495 900.193 154.065ZM906.288 152.162C905 152.86 904.442 153.837 904.44 155.398C904.438 156.545 904.494 156.584 906.176 156.586L907.914 156.588L907.917 154.075C907.919 152.693 907.79 151.568 907.631 151.577C907.472 151.585 906.867 151.849 906.288 152.162ZM908.69 154.076L908.687 156.589L910.425 156.591C912.13 156.593 912.163 156.569 912.156 155.337C912.152 154.645 911.849 153.709 911.482 153.255C910.875 152.502 909.449 151.563 908.912 151.563C908.791 151.563 908.692 152.693 908.69 154.076ZM914.477 152.633C913.719 153.316 913.215 154.212 913.066 155.145L912.834 156.594L914.622 156.597L916.411 156.599L916.414 154.086C916.416 152.695 916.247 151.572 916.037 151.572C915.828 151.572 915.126 152.049 914.477 152.633ZM917.509 154.086L917.635 156.6L919.147 156.602C920.624 156.604 920.659 156.572 920.661 155.221C920.662 154.208 920.361 153.535 919.535 152.707C917.75 150.914 917.363 151.178 917.509 154.086ZM883.592 152.787C883.594 153.266 883.702 154.31 883.833 155.107C884.043 156.391 884.198 156.558 885.178 156.559C886.109 156.56 886.287 156.402 886.288 155.575C886.29 153.851 884.949 151.919 883.75 151.917C883.661 151.917 883.59 152.309 883.592 152.787ZM922.423 153.213C921.651 154.313 921.612 156.605 922.365 156.606C922.8 156.607 923.752 153.81 923.754 152.529C923.755 152.045 922.954 152.456 922.423 153.213ZM81.0309 161.224C79.5426 161.77 78.4016 163.653 79.5583 163.654C79.8124 163.654 80.4862 164.103 81.0563 164.651L82.092 165.647L83.0874 164.653C83.6346 164.107 84.3512 163.66 84.6795 163.661C85.9412 163.662 84.8991 161.941 83.2986 161.38C81.9694 160.914 81.8907 160.908 81.0309 161.224ZM88.0786 161.727C86.8144 162.497 86.3718 163.663 87.3439 163.664C87.6316 163.664 88.3479 164.112 88.9358 164.659L90.0043 165.653L91.0406 164.662C91.6106 164.116 92.2847 163.67 92.5388 163.671C92.7926 163.671 93.0007 163.408 93.0011 163.085C93.0019 162.447 90.8456 160.965 89.9141 160.963C89.5955 160.963 88.7693 161.307 88.0786 161.727ZM96.8656 161.234C96.1051 161.522 94.5461 162.947 94.5456 163.354C94.5454 163.529 94.8136 163.674 95.1419 163.674C95.4702 163.674 96.1775 164.115 96.7137 164.653L97.6888 165.632L98.8502 164.656C99.4889 164.119 100.259 163.68 100.561 163.681C101.353 163.682 101.239 163.163 100.244 162.23C99.2928 161.339 97.7728 160.891 96.8656 161.234ZM104.241 161.468C103.01 162.1 102.273 163.327 102.971 163.581C103.251 163.683 103.942 164.165 104.507 164.653L105.534 165.54L106.635 164.615C107.24 164.106 107.983 163.69 108.285 163.691C109.505 163.692 108.419 161.957 106.857 161.41C105.356 160.884 105.381 160.883 104.241 161.468ZM111.928 161.666C110.552 162.353 109.858 163.693 110.878 163.694C111.184 163.694 111.886 164.149 112.439 164.704L113.445 165.714L114.809 164.429C115.56 163.722 116.174 162.912 116.174 162.629C116.175 162.346 115.572 161.862 114.836 161.553C113.214 160.872 113.546 160.859 111.928 161.666ZM83.7252 165.151C82.9429 165.932 82.5688 166.689 82.5678 167.495C82.5664 168.625 82.6435 168.685 84.1111 168.686L85.656 168.688L85.6586 166.585C85.6601 165.427 85.4857 164.372 85.2712 164.239C85.0566 164.105 84.3609 164.516 83.7252 165.151ZM92.3648 164.441C91.2276 164.898 90.2935 166.331 90.2919 167.621C90.2906 168.615 90.4036 168.694 91.8353 168.696L93.3802 168.698L93.3831 166.378C93.3847 165.102 93.3424 164.07 93.2895 164.083C93.2366 164.096 92.8204 164.257 92.3648 164.441ZM94.4018 164.331C94.2677 164.465 94.1567 165.503 94.1552 166.637L94.1526 168.699L95.6974 168.701C97.1291 168.703 97.2424 168.624 97.2436 167.629C97.2457 165.984 95.1652 163.569 94.4018 164.331ZM99.9888 164.627C98.9086 165.203 98.0502 166.609 98.0293 167.834C98.0164 168.609 98.2039 168.704 99.7526 168.706L101.491 168.708L101.493 166.605C101.495 165.447 101.364 164.419 101.201 164.318C101.04 164.218 100.494 164.357 99.9888 164.627ZM102.266 166.398L102.263 168.709L103.808 168.711C105.108 168.713 105.353 168.588 105.354 167.921C105.355 166.668 104.347 165.037 103.263 164.541L102.269 164.086L102.266 166.398ZM107.322 165.139C106.696 165.723 106.07 166.766 105.931 167.458L105.677 168.714L107.446 168.716L109.215 168.718L109.218 166.398C109.219 165.122 109.05 164.078 108.841 164.078C108.631 164.078 107.948 164.556 107.322 165.139ZM109.99 166.436L109.987 168.719L111.532 168.721C112.975 168.723 113.077 168.65 113.078 167.615C113.08 166.325 111.898 164.653 110.774 164.358C110.055 164.168 109.993 164.333 109.99 166.436ZM79.2391 165.635C79.3711 166.3 79.4784 167.257 79.4778 167.762C79.4768 168.525 79.6732 168.681 80.6352 168.682C81.6691 168.683 81.794 168.557 81.7954 167.506C81.7963 166.771 81.4408 165.971 80.8499 165.378C79.5284 164.052 78.9432 164.145 79.2391 165.635ZM86.4311 166.563L86.4284 168.689L87.9732 168.691C89.4161 168.693 89.5182 168.62 89.5195 167.586C89.5212 166.229 88.1899 164.438 87.178 164.437C86.5334 164.436 86.4334 164.721 86.4311 166.563ZM114.454 165.718C113.669 166.838 113.653 168.724 114.429 168.725C114.747 168.725 115.016 168.595 115.025 168.436C115.035 168.276 115.186 167.406 115.362 166.503C115.714 164.691 115.378 164.401 114.454 165.718ZM1515.51 178.835C1514.47 179.78 1514.46 179.833 1515.18 180.285C1515.59 180.543 1516.35 181.157 1516.86 181.65L1517.79 182.546L1518.37 181.724C1518.69 181.272 1519.36 180.744 1519.87 180.551C1521.07 180.099 1521.04 179.654 1519.79 178.66C1518.41 177.576 1516.84 177.641 1515.51 178.835ZM1523.24 178.856C1522.45 179.573 1522.3 179.907 1522.67 180.06C1522.96 180.177 1523.77 180.783 1524.48 181.408C1525.71 182.489 1525.79 182.508 1526.17 181.806C1526.38 181.399 1527.08 180.852 1527.72 180.59C1528.71 180.181 1528.81 180.013 1528.43 179.406C1527.36 177.683 1524.82 177.414 1523.24 178.856ZM1531.04 178.87L1529.97 179.865L1531.27 180.657C1531.99 181.092 1532.72 181.696 1532.9 181.998C1533.15 182.439 1533.46 182.326 1534.5 181.418C1535.21 180.796 1536.02 180.194 1536.31 180.077C1536.68 179.925 1536.53 179.591 1535.75 178.872C1534.3 177.545 1532.47 177.545 1531.04 178.87ZM1539.07 178.865C1538.03 179.81 1538.01 179.863 1538.74 180.315C1539.15 180.573 1539.91 181.187 1540.42 181.68C1541.33 182.556 1541.36 182.559 1541.87 181.832C1542.16 181.422 1542.92 180.873 1543.55 180.611C1544.54 180.202 1544.64 180.033 1544.26 179.426C1543.2 177.708 1540.66 177.434 1539.07 178.865ZM1546.8 178.892L1545.81 179.889L1546.92 180.569C1547.53 180.943 1548.27 181.54 1548.56 181.896C1549.05 182.491 1549.17 182.466 1550.06 181.574C1550.59 181.041 1551.18 180.605 1551.36 180.605C1551.55 180.606 1551.7 180.177 1551.7 179.653C1551.7 177.725 1548.48 177.223 1546.8 178.892ZM1097.64 181.672C1098.15 182.364 1098.73 183.43 1098.92 184.042C1099.28 185.154 1099.28 185.153 1100.45 182.788L1101.63 180.42L1099.17 180.417L1096.7 180.414L1097.64 181.672ZM1514.81 182.754C1515.17 185.422 1515.25 185.586 1516.34 185.587C1517.15 185.588 1517.32 185.406 1517.32 184.515C1517.32 183.284 1516.48 181.917 1515.34 181.307C1514.6 180.906 1514.58 180.969 1514.81 182.754ZM1519.28 181.952C1518.38 182.709 1518.09 183.273 1518.09 184.271C1518.09 185.552 1518.13 185.59 1519.64 185.592L1521.18 185.594L1521.18 183.274C1521.18 181.998 1521.03 180.954 1520.83 180.953C1520.63 180.953 1519.94 181.403 1519.28 181.952ZM1521.96 183.275L1521.95 185.595L1523.5 185.596C1525.01 185.598 1525.04 185.569 1525.04 184.227C1525.05 183.24 1524.76 182.588 1524.02 181.905C1522.37 180.366 1521.96 180.639 1521.96 183.275ZM1527.18 181.831C1526.58 182.354 1526.09 183.278 1525.95 184.15L1525.71 185.599L1527.31 185.601L1528.9 185.603L1528.91 183.283C1528.91 182.008 1528.75 180.963 1528.55 180.963C1528.34 180.963 1527.73 181.353 1527.18 181.831ZM1529.68 183.284L1529.68 185.604L1531.41 185.607C1532.91 185.608 1533.15 185.498 1533.15 184.816C1533.16 183.109 1531.45 180.967 1530.09 180.965C1529.85 180.965 1529.68 181.9 1529.68 183.284ZM1534.99 181.947C1534.06 182.879 1533.41 184.699 1533.79 185.317C1533.89 185.478 1534.66 185.611 1535.49 185.612L1537.01 185.614L1537.02 183.294C1537.02 180.654 1536.58 180.361 1534.99 181.947ZM1537.79 183.295L1537.79 185.615L1539.33 185.617C1540.8 185.618 1540.88 185.559 1540.88 184.429C1540.88 183.63 1540.51 182.868 1539.75 182.108C1538.11 180.46 1537.79 180.652 1537.79 183.295ZM1542.78 182.111C1542.02 182.87 1541.65 183.631 1541.65 184.43C1541.65 185.56 1541.73 185.62 1543.19 185.622L1544.74 185.624L1544.74 183.304C1544.75 180.661 1544.43 180.468 1542.78 182.111ZM1545.9 183.305L1545.9 185.625L1547.23 185.627C1548.87 185.629 1549.06 185.344 1548.57 183.574C1548.23 182.319 1547.01 180.987 1546.2 180.986C1546.04 180.985 1545.9 182.029 1545.9 183.305ZM1089.25 181.762C1089.78 182.296 1090.4 183.254 1090.62 183.89C1091.06 185.179 1091.71 185.438 1091.72 184.328C1091.72 183.932 1092.15 182.976 1092.67 182.203L1093.63 180.797L1090.95 180.793L1088.28 180.79L1089.25 181.762ZM1106.21 182.61C1106.74 183.599 1107.17 184.687 1107.18 185.028C1107.19 185.369 1107.56 184.951 1108 184.101C1108.44 183.251 1109.16 182.165 1109.6 181.687L1110.39 180.818L1107.83 180.815L1105.26 180.811L1106.21 182.61ZM1550.23 182.537C1549.18 184.202 1549.08 185.742 1550.03 185.56C1550.45 185.48 1550.81 184.871 1551.01 183.9C1551.51 181.51 1551.2 180.977 1550.23 182.537ZM1080.99 181.442L1080.1 181.611L1081.06 182.368C1081.59 182.785 1082.24 183.729 1082.5 184.467C1083.01 185.88 1083.6 186.256 1083.6 185.168C1083.6 184.814 1084.05 183.771 1084.59 182.849L1085.57 181.173L1083.72 181.223C1082.7 181.251 1081.47 181.35 1080.99 181.442ZM1093.82 182.132C1093.09 183.24 1092.1 186.364 1092.1 187.526C1092.1 188.231 1092.23 188.174 1093.1 187.079C1094.47 185.343 1096.25 185.333 1097.69 187.053L1098.72 188.279L1098.45 186.764C1097.63 182.133 1095.33 179.833 1093.82 182.132ZM1101.91 182.164C1101.03 183.506 1100.25 185.813 1100.23 187.118L1100.21 188.211L1101.21 187.022C1102.47 185.524 1104.09 185.434 1105.44 186.787L1106.39 187.737L1106.39 186.837C1106.39 185.597 1105.35 182.737 1104.59 181.893C1103.71 180.918 1102.66 181.024 1101.91 182.164ZM1113.65 182.272C1114.06 182.857 1114.61 183.993 1114.87 184.796L1115.34 186.256L1116.29 184.349C1116.81 183.301 1117.53 182.331 1117.89 182.195C1119.06 181.748 1117.6 181.226 1115.16 181.216L1112.91 181.208L1113.65 182.272ZM1086.44 182.13C1085.5 182.789 1084.59 184.881 1084.18 187.338L1083.89 189.059L1085.24 187.63C1086.91 185.864 1087.96 185.822 1089.48 187.459L1090.65 188.715L1090.36 186.977C1090.06 185.124 1089.29 183.345 1088.33 182.24C1087.61 181.417 1087.47 181.409 1086.44 182.13ZM1110.73 181.851C1109.69 182.269 1107.46 188.587 1108.11 189.249C1108.23 189.36 1108.32 189.266 1108.32 189.04C1108.32 188.267 1110.56 186.231 1111.41 186.232C1111.88 186.233 1112.76 186.775 1113.38 187.436C1114.33 188.462 1114.5 188.528 1114.5 187.885C1114.5 186.46 1113.39 183.434 1112.53 182.514C1111.63 181.557 1111.54 181.524 1110.73 181.851ZM1073.57 182.214C1072.26 182.366 1070.94 183.088 1071.96 183.089C1072.23 183.089 1072.99 184.251 1073.65 185.67L1074.85 188.251L1075.52 186.208C1075.89 185.085 1076.56 183.664 1077.01 183.051L1077.84 181.936L1076.38 181.996C1075.57 182.029 1074.31 182.127 1073.57 182.214ZM1121.9 183.355C1122.37 184.165 1122.96 185.622 1123.21 186.591L1123.65 188.354L1124.5 186.437C1124.97 185.383 1125.71 184.145 1126.14 183.687C1127.12 182.647 1126.85 182.485 1123.63 182.15L1121.03 181.88L1121.9 183.355ZM1078.05 183.276C1077.15 184.254 1076.51 185.987 1076.06 188.701L1075.8 190.247L1076.78 188.847C1078.32 186.66 1079.44 186.44 1081.25 187.968C1082.35 188.895 1082.44 188.914 1082.44 188.212C1082.44 186.23 1080.34 182.326 1079.27 182.325C1079.09 182.325 1078.54 182.753 1078.05 183.276ZM1118.5 182.944C1117.56 183.604 1116.65 185.695 1116.23 188.152L1115.95 189.873L1117.29 188.444C1118.95 186.693 1119.84 186.651 1121.4 188.252C1122.78 189.664 1122.9 189.305 1122.03 186.369C1121.48 184.518 1120.17 182.377 1119.58 182.376C1119.43 182.376 1118.94 182.632 1118.5 182.944ZM1067.81 183.141C1066.88 183.309 1066.05 183.513 1065.97 183.595C1065.89 183.676 1066.38 184.943 1067.05 186.41L1068.29 189.077L1068.55 186.941C1068.69 185.767 1069.02 184.404 1069.29 183.913C1069.55 183.422 1069.71 182.978 1069.64 182.927C1069.57 182.876 1068.75 182.972 1067.81 183.141ZM1129.39 184.225C1129.7 184.81 1129.95 185.637 1129.95 186.063C1129.97 187.893 1130.6 187.749 1131.05 185.811C1131.56 183.616 1131.33 183.182 1129.68 183.168C1128.88 183.162 1128.87 183.219 1129.39 184.225ZM1070.12 184.566C1069.91 184.955 1069.62 186.212 1069.46 187.361C1069.2 189.342 1069.22 189.416 1069.85 188.782C1070.22 188.414 1070.78 188.114 1071.09 188.114C1071.68 188.115 1073.01 189.34 1073.84 190.654C1074.26 191.32 1074.29 191.274 1074.08 190.245C1073.07 185.327 1071.17 182.607 1070.12 184.566ZM1126.14 185.381C1125.31 187.003 1124.14 190.706 1124.16 191.635C1124.17 191.969 1124.45 191.721 1124.79 191.082C1126.14 188.528 1127.65 187.59 1128.71 188.652C1129.07 189.013 1129.17 188.863 1129.17 187.976C1129.17 185.859 1128.43 183.934 1127.62 183.933C1127.15 183.932 1126.61 184.461 1126.14 185.381ZM1094.3 187.288C1093.5 188.169 1092.48 190.589 1092.48 191.609C1092.48 192.332 1092.72 192.395 1095.53 192.399L1098.58 192.402L1098.28 191.145C1097.62 188.384 1096.5 186.6 1095.41 186.599C1095.14 186.598 1094.64 186.909 1094.3 187.288ZM1101.8 187.875C1101.37 188.572 1100.85 189.876 1100.65 190.773L1100.28 192.405L1103.33 192.408C1106.75 192.413 1106.81 192.348 1105.82 189.583C1104.72 186.474 1103.1 185.785 1101.8 187.875ZM1086.41 187.859C1085.47 188.88 1084.95 189.886 1084.61 191.321L1084.35 192.384L1087.43 192.388L1090.51 192.392L1089.98 190.634C1089.07 187.591 1087.65 186.49 1086.41 187.859ZM1110.13 188.087C1109.62 188.645 1108.31 191.659 1108.31 192.27C1108.31 192.35 1109.69 192.417 1111.38 192.419L1114.45 192.423L1113.92 190.645C1113.02 187.634 1111.48 186.594 1110.13 188.087ZM1118.8 188.079C1118.52 188.181 1117.87 189.157 1117.36 190.248L1116.44 192.232L1119.18 192.35C1120.69 192.415 1122 192.387 1122.1 192.289C1122.2 192.191 1121.94 191.327 1121.51 190.37C1120.73 188.592 1119.73 187.748 1118.8 188.079ZM1078.29 188.607C1077.71 189.333 1076.64 191.507 1076.64 191.969C1076.64 192.213 1077.72 192.376 1079.35 192.378C1082.43 192.382 1082.56 192.193 1081.27 189.658C1080.46 188.06 1079.11 187.583 1078.29 188.607ZM1070.12 190.491C1069.49 192.292 1069.54 192.365 1071.43 192.368C1072.38 192.369 1073.17 192.24 1073.17 192.08C1073.16 191.4 1071.59 189.275 1071.09 189.274C1070.79 189.274 1070.35 189.821 1070.12 190.491ZM1126.13 190.891L1125.26 192.436L1127.02 192.439C1128.54 192.441 1128.78 192.333 1128.78 191.642C1128.78 190.565 1128.1 189.347 1127.49 189.346C1127.22 189.346 1126.6 190.041 1126.13 190.891ZM1437.46 191.219C1437.08 191.459 1437.1 191.687 1437.54 192.276C1438.09 192.996 1438.11 192.983 1438.12 191.964C1438.14 190.785 1438.14 190.788 1437.46 191.219ZM1436.75 195.289C1436.61 195.647 1436.66 197.112 1436.85 198.543L1437.2 201.146L1437.51 198.308C1437.73 196.396 1437.7 195.335 1437.42 195.054C1437.12 194.756 1436.93 194.823 1436.75 195.289ZM1322.44 232.416C1322.56 233.001 1323.23 237.278 1323.93 241.921C1324.64 246.564 1325.3 250.438 1325.39 250.528C1325.48 250.619 1326.29 250.302 1327.19 249.823C1328.82 248.958 1328.82 248.944 1328.59 247.213C1327.69 240.545 1327.58 238.909 1327.82 235.847C1327.96 233.956 1328.17 232.173 1328.28 231.884C1328.44 231.469 1327.83 231.359 1325.36 231.356L1322.24 231.352L1322.44 232.416ZM248.889 234.033C248.704 234.218 250.353 245.079 250.605 245.332C250.655 245.383 251.1 245.32 251.592 245.192C252.429 244.973 252.469 244.832 252.212 242.985C252.06 241.899 251.74 239.444 251.499 237.53C251.084 234.229 251.011 234.044 250.083 233.934C249.545 233.87 249.008 233.915 248.889 234.033ZM336.372 236.961C336.51 237.759 336.736 240.239 336.875 242.472L337.126 246.532L338.026 241.506C338.521 238.743 338.845 236.264 338.745 235.998C338.645 235.732 338.014 235.513 337.342 235.512C336.143 235.511 336.125 235.538 336.372 236.961Z" fill="#0B0B0C"/>
<rect y="315" width="1582" height="37" fill="#0B0B0C"/>
</svg>
