<svg width="1713" height="1347" viewBox="0 0 1713 1347" fill="none" xmlns="http://www.w3.org/2000/svg">
<g filter="url(#filter0_d_77_517)">
<path d="M1698.43 138.939C1697.48 137.183 1696.52 135.426 1695.57 133.67C1696.52 135.428 1696.99 136.308 1696.99 136.31C1645.61 164.511 1585.09 143.51 1536.42 118.996C1483.7 92.3818 1436.12 57.5142 1383.96 28.5767C1357.84 14.7768 1330.25 0.0267209 1298.12 0.567409C1263.44 0.537126 1241.96 34.3605 1234.71 62.5797C1231.83 72.575 1230.18 80.4635 1228.45 90.8089C1221.84 132.83 1218.56 175.974 1231.14 218.223C1242.25 260.748 1282.42 294.134 1325.76 298.789C1412.57 307.96 1495.36 273.42 1565.17 226.375C1568.74 223.405 1575.48 225.542 1575.81 229.724C1618.45 533.078 1511.85 859.328 1289.54 1073.8C1071.18 1288.52 736.815 1319.37 454.479 1242.04C358.322 1217.83 261.416 1183.17 170.634 1144.36C117.092 1121.36 69.8639 1099.33 17.4378 1072.94C16.4793 1074.7 15.5207 1076.45 14.5622 1078.21C65.285 1108.01 111.351 1132.97 164.274 1158.39C253.895 1201.51 351.394 1238.78 449.096 1263.37C738.153 1342.33 1075.07 1289.45 1290.92 1075.25C1513.49 860.332 1624.53 535.78 1584.56 228.343C1582.82 216.66 1568.11 212.591 1559.78 219.085C1492.05 264.122 1408.58 297.291 1327.46 287.854C1236.76 278.909 1224.72 169.988 1240.28 92.7537C1241.95 82.8183 1243.54 75.3014 1246.22 65.942C1253.64 38.7959 1270.48 12.2777 1298.72 11.6346C1326.09 10.4232 1353.91 23.475 1379.86 36.3589C1432.13 63.2727 1481.39 96.4993 1535.14 121.638C1584.9 144.808 1645.79 164.5 1696.99 136.31C1696.99 136.308 1697.48 137.185 1698.43 138.939Z" fill="#BE247C"/>
</g>
<defs>
<filter id="filter0_d_77_517" x="0.5625" y="0.552979" width="1711.87" height="1345.53" filterUnits="userSpaceOnUse" color-interpolation-filters="sRGB">
<feFlood flood-opacity="0" result="BackgroundImageFix"/>
<feColorMatrix in="SourceAlpha" type="matrix" values="0 0 0 0 0 0 0 0 0 0 0 0 0 0 0 0 0 0 127 0" result="hardAlpha"/>
<feOffset dy="34"/>
<feGaussianBlur stdDeviation="7"/>
<feComposite in2="hardAlpha" operator="out"/>
<feColorMatrix type="matrix" values="0 0 0 0 0 0 0 0 0 0 0 0 0 0 0 0 0 0 0.25 0"/>
<feBlend mode="normal" in2="BackgroundImageFix" result="effect1_dropShadow_77_517"/>
<feBlend mode="normal" in="SourceGraphic" in2="effect1_dropShadow_77_517" result="shape"/>
</filter>
</defs>
</svg>
